<?xml version="1.0" encoding="UTF-8" standalone="no"?>
<svg xmlns:dc="http://purl.org/dc/elements/1.1/" xmlns:cc="http://creativecommons.org/ns#" xmlns:rdf="http://www.w3.org/1999/02/22-rdf-syntax-ns#" xmlns:svg="http://www.w3.org/2000/svg" xmlns="http://www.w3.org/2000/svg" xmlns:sodipodi="http://sodipodi.sourceforge.net/DTD/sodipodi-0.dtd" xmlns:inkscape="http://www.inkscape.org/namespaces/inkscape" id="Layer_1" data-name="Layer 1" viewBox="0 0 1372.02 793.96002" version="1.1" sodipodi:docname="enoco_mork.svg" width="1372.02" height="793.96002" inkscape:version="0.92.5 (2060ec1f9f, 2020-04-08)">
  <metadata id="metadata21">
    <rdf:RDF>
      <cc:Work rdf:about="">
        <dc:format>image/svg+xml</dc:format>
        <dc:type rdf:resource="http://purl.org/dc/dcmitype/StillImage"/>
        <dc:title>Enoco_logo_Mork</dc:title>
      </cc:Work>
    </rdf:RDF>
  </metadata>
  <sodipodi:namedview pagecolor="#ffffff" bordercolor="#666666" borderopacity="1" objecttolerance="10" gridtolerance="10" guidetolerance="10" inkscape:pageopacity="0" inkscape:pageshadow="2" inkscape:window-width="1920" inkscape:window-height="1043" id="namedview19" showgrid="false" fit-margin-top="200" fit-margin-bottom="200" fit-margin-left="0" fit-margin-right="0" inkscape:zoom="0.27914434" inkscape:cx="222.07732" inkscape:cy="396.95498" inkscape:window-x="0" inkscape:window-y="0" inkscape:window-maximized="1" inkscape:current-layer="Layer_1"/>
  <defs id="defs4">
    <style id="style2">
      .cls-1 {
        fill: #3a3d3f;
      }

      .cls-2 {
        fill: #3764a9;
      }

    </style>
  </defs>
  <title id="title6">Enoco_logo_Mork</title>
  <g id="g28" transform="translate(0,32)">
    <path style="fill:#3a3d3f" inkscape:connector-curvature="0" id="path8" d="m 40.450003,306.38 q -0.28,58.13 28.22,91.19 28.5,33.06 66.999997,33.07 25.67,0 44.61,-14.12 18.94,-14.12 31.78,-48.29 l 8.84,5.68 q -6,39.08 -34.77,71.13 -28.77,32.05 -72.12,32 -46.999997,0 -80.509997,-36.61 Q -0.00999702,403.82 2.9832955e-6,341.95 q 0,-67 34.3500000167045,-104.46 34.35,-37.46 86.219997,-37.49 43.89,0 72.11,28.93 28.22,28.93 28.22,77.4 z m 0,-16.55 H 161.3 q -1.44,-25.06 -6,-35.34 a 56.68,56.68 0 0 0 -21.23,-25.08 q -14.1,-9.1 -29.5,-9.12 -23.669997,0 -42.319997,18.39 -18.65,18.39 -21.8,51.15 z" class="cls-1"/>
    <path style="fill:#3764a9" inkscape:connector-curvature="0" id="path10" d="m 345.71,256.5 q 44.74,-56.16 87.79,-56.15 67.26,0 67.26,98.9 v 211.48 q 0,54.15 10.83,83.23 h -48.16 q -9.7,-26.81 -9.69,-98.05 V 292.96 q 0,-29.34 -9.13,-43.45 -9.13,-14.11 -31.92,-14.12 -34.2,0 -67,37.91 V 469.13 H 298.64 V 273.3 q 0,-26.5 -5.27,-36.48 -5.27,-9.98 -17.81,-10 -20.25,0 -24.8,39.9 h -10.22 q 5.42,-66.42 54.73,-66.41 21.94,0 35.9,15.24 13.96,15.24 14.54,40.95 z" class="cls-2"/>
    <path style="fill:#3a3d3f" inkscape:connector-curvature="0" id="path12" d="m 688.64,200.35 q 59.28,0 95.19,45 30.51,38.49 30.5,88.36 0,35.06 -16.81,71 -16.81,35.94 -46.38,54.15 -29.5,18.21 -65.68,18.27 -59,0 -93.77,-47 a 145.73,145.73 0 0 1 -29.36,-89 q 0,-35.91 17.81,-71.39 17.81,-35.48 46.88,-52.45 a 120.28,120.28 0 0 1 61.62,-16.94 z m -8.84,18.51 q -15.11,0 -30.35,9 -15.24,9 -24.71,31.49 -9.39,22.5 -9.4,57.85 0,57 22.66,98.34 22.66,41.34 59.71,41.33 27.64,0 45.6,-22.82 17.96,-22.82 18,-78.37 0,-69.56 -29.92,-109.45 -20.28,-27.37 -51.64,-27.37 z" class="cls-1"/>
    <path style="fill:#3a3d3f" inkscape:connector-curvature="0" id="path14" d="m 1074.51,369.94 q -10.57,51.56 -41.32,79.38 -30.75,27.82 -68.14,27.81 -44.46,0 -77.51,-37.33 -33.05,-37.33 -33.08,-100.93 0,-61.58 36.63,-100.05 36.63,-38.47 87.94,-38.47 38.46,0 63.27,20.36 24.81,20.36 24.8,42.33 0,10.85 -7,17.53 -7,6.68 -19.46,6.71 -16.85,0 -25.39,-10.84 -4.85,-6 -6.4,-22.8 -1.55,-16.8 -11.55,-25.66 -10,-8.52 -27.65,-8.53 -28.5,0 -45.89,21.08 -23.12,27.93 -23.12,73.82 0,46.75 22.93,82.51 22.93,35.76 62,35.77 27.93,0 50.17,-19.1 15.69,-13.09 30.5,-47.59 z" class="cls-1"/>
    <path style="fill:#3a3d3f" inkscape:connector-curvature="0" id="path16" d="m 1246.33,200.35 q 59.28,0 95.19,45 30.51,38.49 30.5,88.36 0,35.06 -16.81,71 -16.81,35.94 -46.32,54.16 -29.49,18.21 -65.69,18.23 -59,0 -93.77,-47 a 145.73,145.73 0 0 1 -29.36,-88.97 q 0,-35.91 17.81,-71.39 17.81,-35.48 46.88,-52.45 a 120.31,120.31 0 0 1 61.57,-16.94 z m -8.83,18.51 q -15.1,0 -30.36,9 -15.26,9 -24.65,31.51 -9.4,22.5 -9.4,57.85 0,57 22.65,98.34 22.65,41.34 59.71,41.33 27.64,0 45.6,-22.82 17.96,-22.82 18,-78.37 0,-69.56 -29.92,-109.45 -20.29,-27.39 -51.63,-27.39 z" class="cls-1"/>
  </g>
</svg>